<svg xmlns="http://www.w3.org/2000/svg" viewBox="0 0 1440 320"><path fill="#EB7C3E" fill-opacity="1" d="M0,256L26.7,229.3C53.3,203,107,149,160,138.7C213.3,128,267,160,320,181.3C373.3,203,427,213,480,197.3C533.3,181,587,139,640,122.7C693.3,107,747,117,800,117.3C853.3,117,907,107,960,122.7C1013.3,139,1067,181,1120,165.3C1173.3,149,1227,75,1280,90.7C1333.3,107,1387,213,1413,266.7L1440,320L1440,0L1413.3,0C1386.7,0,1333,0,1280,0C1226.7,0,1173,0,1120,0C1066.7,0,1013,0,960,0C906.7,0,853,0,800,0C746.7,0,693,0,640,0C586.7,0,533,0,480,0C426.7,0,373,0,320,0C266.7,0,213,0,160,0C106.7,0,53,0,27,0L0,0Z"></path></svg>